<svg xmlns="http://www.w3.org/2000/svg" version="1.1" xmlns:xlink="http://www.w3.org/1999/xlink" xmlns:svgjs="http://svgjs.dev/svgjs" width="2000" height="2250" viewBox="0 0 2000 2250"><g transform="matrix(1,0,0,1,0,0)"><svg viewBox="0 0 320 360" data-background-color="#ffffff" preserveAspectRatio="xMidYMid meet" height="2250" width="2000" xmlns="http://www.w3.org/2000/svg" xmlns:xlink="http://www.w3.org/1999/xlink"><g id="tight-bounds" transform="matrix(1,0,0,1,0,0)"><svg viewBox="0 0 320 360" height="360" width="320"><g><svg></svg></g><g><svg viewBox="0 0 320 360" height="360" width="320"><g><path d="M320 187.111c0-45.764-20.238-86.866-52.203-114.908-28.043-31.964-69.145-52.203-114.908-52.203-84.302 0-152.889 68.587-152.889 152.889 0 45.753 20.231 86.848 52.185 114.891 28.043 31.975 69.152 52.22 114.926 52.22 0.299 0 0.59-0.021 0.889-0.021 0.299 0 0.59 0.021 0.889 0.021 83.456 0 151.111-67.655 151.111-151.111 0-0.299-0.021-0.59-0.021-0.889 0-0.299 0.021-0.59 0.021-0.889zM59.833 263.097c-15.093-21.255-24.071-47.143-24.256-75.097 0.48-72.928 59.492-131.943 132.423-132.423 27.954 0.185 53.845 9.163 75.097 24.256 24.366 23.627 39.57 56.64 39.57 93.056 0 71.559-58.219 129.778-129.778 129.778-36.416 0-69.429-15.204-93.056-39.57zM3.556 172.889c0-82.343 66.99-149.333 149.333-149.333 35.051 0 67.292 12.167 92.8 32.462-22.98-13.824-49.863-21.796-78.578-21.796-84.302 0-152.889 68.587-152.889 152.889 0 28.708 7.968 55.584 21.785 78.56-20.288-25.5-32.452-57.739-32.451-92.782zM167.111 318.667c-35.84 0-68.363-14.418-92.107-37.743 21.952 15.89 48.864 25.298 77.885 25.298 73.522 0 133.333-59.812 133.333-133.333 0-29.02-9.408-55.932-25.298-77.885 23.324 23.744 37.742 56.267 37.743 92.107 0 72.54-59.015 131.556-131.556 131.556z" fill="#f72585" fill-rule="nonzero" stroke="none" stroke-width="1" stroke-linecap="butt" stroke-linejoin="miter" stroke-miterlimit="10" stroke-dasharray="" stroke-dashoffset="0" font-family="none" font-weight="none" font-size="none" text-anchor="none" style="mix-blend-mode: normal" data-fill-palette-color="tertiary"></path></g><g transform="matrix(1,0,0,1,64,102.1411192214112)"><svg viewBox="0 0 192 155.7177615571776" height="155.7177615571776" width="192"><g><svg viewBox="0 0 192 155.7177615571776" height="155.7177615571776" width="192"><g><svg viewBox="0 0 192 155.7177615571776" height="155.7177615571776" width="192"><g><svg viewBox="0 0 192 155.7177615571776" height="155.7177615571776" width="192"><g id="textblocktransform"><svg viewBox="0 0 192 155.7177615571776" height="155.7177615571776" width="192" id="textblock"><g><svg viewBox="0 0 192 155.7177615571776" height="155.7177615571776" width="192"><g transform="matrix(1,0,0,1,0,0)"><svg width="192" viewBox="1 -37.5 61.64 50" height="155.7177615571776" data-palette-color="#f72585"><path d="M13.35-5.05L1-11.9 1.45-13.95 16.8-21.45 16.3-18.7 4.25-12.7 13.95-7.9 13.35-5.05ZM33.65-8.35L33.65-8.35Q33.65-7.75 33.6-7.3 33.55-6.85 33.45-6.45L33.45-6.45Q34.45-7.05 35.4-7.7 36.35-8.35 37.05-8.95L37.05-8.95 39.15-8.95Q37.6-7.15 35.72-5.63 33.85-4.1 31.5-2.7L31.5-2.7Q30.15-1.25 28.05-0.48 25.95 0.3 23.65 0.3L23.65 0.3Q20.3 0.3 18.32-1.53 16.35-3.35 16.35-6.1L16.35-6.1Q16.35-7.65 17.1-8.93 17.85-10.2 19-10.75L19-10.75Q20.7-13.8 22.17-17.28 23.65-20.75 25.15-25.55L25.15-25.55 32.55-26.55Q32.7-22.8 32.9-19.7 33.1-16.6 33.4-12.95L33.4-12.95Q33.55-10.85 33.6-10 33.65-9.15 33.65-8.35ZM25.45-20.15L25.45-20.15Q24.8-18.1 23.87-15.88 22.95-13.65 21.4-10.7L21.4-10.7Q21.95-10.45 22.25-10 22.55-9.55 22.55-8.95L22.55-8.95Q22.55-8 21.9-7.25 21.25-6.5 20.35-6.5L20.35-6.5Q19.85-6.5 19.5-6.68 19.15-6.85 19-7.15L19-7.15Q19-5.3 19.72-4.48 20.45-3.65 22.05-3.65L22.05-3.65Q24.1-3.65 25.25-4.85 26.4-6.05 26.4-8.3L26.4-8.3Q26.4-9 26.35-9.73 26.3-10.45 26.15-12.15L26.15-12.15Q25.9-14.5 25.75-16.3 25.6-18.1 25.45-20.15ZM52.04 12.5L48.44 12.5 59.04-37.5 62.64-37.5 52.04 12.5Z" opacity="1" transform="matrix(1,0,0,1,0,0)" fill="#f72585" class="wordmark-text-0" data-fill-palette-color="primary" id="text-0"></path></svg></g></svg></g></svg></g></svg></g></svg></g></svg></g></svg></g></svg></g><defs></defs></svg><rect width="320" height="360" fill="none" stroke="none" visibility="hidden"></rect></g></svg></g></svg>